<mxfile host="app.diagrams.net" modified="2024-07-02T13:22:38.004Z" agent="Mozilla/5.0 (Windows NT 10.0; Win64; x64) AppleWebKit/537.36 (KHTML, like Gecko) Chrome/126.0.0.0 Safari/537.36" etag="5qffeV91t_ds5vkeGWvN" version="24.6.4" type="device">
  <diagram id="C5RBs43oDa-KdzZeNtuy" name="Page-1">
    <mxGraphModel dx="1434" dy="772" grid="1" gridSize="10" guides="1" tooltips="1" connect="1" arrows="1" fold="1" page="1" pageScale="1" pageWidth="827" pageHeight="1169" math="0" shadow="0">
      <root>
        <mxCell id="WIyWlLk6GJQsqaUBKTNV-0" />
        <mxCell id="WIyWlLk6GJQsqaUBKTNV-1" parent="WIyWlLk6GJQsqaUBKTNV-0" />
        <mxCell id="7jl8JdqEUFgO9NRopQBS-5" style="edgeStyle=orthogonalEdgeStyle;rounded=0;orthogonalLoop=1;jettySize=auto;html=1;exitX=0.5;exitY=1;exitDx=0;exitDy=0;exitPerimeter=0;entryX=0.5;entryY=0;entryDx=0;entryDy=0;" edge="1" parent="WIyWlLk6GJQsqaUBKTNV-1" source="7jl8JdqEUFgO9NRopQBS-0" target="7jl8JdqEUFgO9NRopQBS-4">
          <mxGeometry relative="1" as="geometry" />
        </mxCell>
        <mxCell id="7jl8JdqEUFgO9NRopQBS-0" value="php wordle&lt;div&gt;(start)&lt;/div&gt;" style="strokeWidth=2;html=1;shape=mxgraph.flowchart.start_2;whiteSpace=wrap;" vertex="1" parent="WIyWlLk6GJQsqaUBKTNV-1">
          <mxGeometry x="20" y="140" width="100" height="100" as="geometry" />
        </mxCell>
        <mxCell id="7jl8JdqEUFgO9NRopQBS-8" value="" style="edgeStyle=orthogonalEdgeStyle;rounded=0;orthogonalLoop=1;jettySize=auto;html=1;" edge="1" parent="WIyWlLk6GJQsqaUBKTNV-1" source="7jl8JdqEUFgO9NRopQBS-3" target="7jl8JdqEUFgO9NRopQBS-7">
          <mxGeometry relative="1" as="geometry" />
        </mxCell>
        <mxCell id="7jl8JdqEUFgO9NRopQBS-3" value="Enter your name" style="strokeWidth=2;html=1;shape=mxgraph.flowchart.display;whiteSpace=wrap;" vertex="1" parent="WIyWlLk6GJQsqaUBKTNV-1">
          <mxGeometry x="190" y="290" width="100" height="60" as="geometry" />
        </mxCell>
        <mxCell id="7jl8JdqEUFgO9NRopQBS-6" value="" style="edgeStyle=orthogonalEdgeStyle;rounded=0;orthogonalLoop=1;jettySize=auto;html=1;" edge="1" parent="WIyWlLk6GJQsqaUBKTNV-1" source="7jl8JdqEUFgO9NRopQBS-4" target="7jl8JdqEUFgO9NRopQBS-3">
          <mxGeometry relative="1" as="geometry" />
        </mxCell>
        <mxCell id="7jl8JdqEUFgO9NRopQBS-4" value="Get player name" style="rounded=1;whiteSpace=wrap;html=1;absoluteArcSize=1;arcSize=14;strokeWidth=2;" vertex="1" parent="WIyWlLk6GJQsqaUBKTNV-1">
          <mxGeometry x="20" y="270" width="100" height="100" as="geometry" />
        </mxCell>
        <mxCell id="7jl8JdqEUFgO9NRopQBS-36" style="edgeStyle=orthogonalEdgeStyle;rounded=0;orthogonalLoop=1;jettySize=auto;html=1;exitX=1;exitY=0.5;exitDx=0;exitDy=0;entryX=0.5;entryY=0;entryDx=0;entryDy=0;" edge="1" parent="WIyWlLk6GJQsqaUBKTNV-1" source="7jl8JdqEUFgO9NRopQBS-7" target="7jl8JdqEUFgO9NRopQBS-9">
          <mxGeometry relative="1" as="geometry">
            <Array as="points">
              <mxPoint x="380" y="410" />
              <mxPoint x="380" y="10" />
              <mxPoint x="720" y="10" />
            </Array>
          </mxGeometry>
        </mxCell>
        <mxCell id="7jl8JdqEUFgO9NRopQBS-7" value="Create player" style="shape=parallelogram;html=1;strokeWidth=2;perimeter=parallelogramPerimeter;whiteSpace=wrap;rounded=1;arcSize=12;size=0.23;" vertex="1" parent="WIyWlLk6GJQsqaUBKTNV-1">
          <mxGeometry x="190" y="380" width="100" height="60" as="geometry" />
        </mxCell>
        <mxCell id="7jl8JdqEUFgO9NRopQBS-12" value="Yes" style="edgeStyle=orthogonalEdgeStyle;rounded=0;orthogonalLoop=1;jettySize=auto;html=1;" edge="1" parent="WIyWlLk6GJQsqaUBKTNV-1" source="7jl8JdqEUFgO9NRopQBS-9" target="7jl8JdqEUFgO9NRopQBS-11">
          <mxGeometry relative="1" as="geometry" />
        </mxCell>
        <mxCell id="7jl8JdqEUFgO9NRopQBS-14" value="No" style="edgeStyle=orthogonalEdgeStyle;rounded=0;orthogonalLoop=1;jettySize=auto;html=1;" edge="1" parent="WIyWlLk6GJQsqaUBKTNV-1" source="7jl8JdqEUFgO9NRopQBS-9" target="7jl8JdqEUFgO9NRopQBS-13">
          <mxGeometry relative="1" as="geometry" />
        </mxCell>
        <mxCell id="7jl8JdqEUFgO9NRopQBS-9" value="Does player have guesses?" style="rhombus;whiteSpace=wrap;html=1;strokeWidth=2;rounded=1;arcSize=12;" vertex="1" parent="WIyWlLk6GJQsqaUBKTNV-1">
          <mxGeometry x="680" y="40" width="80" height="80" as="geometry" />
        </mxCell>
        <mxCell id="7jl8JdqEUFgO9NRopQBS-18" value="" style="edgeStyle=orthogonalEdgeStyle;rounded=0;orthogonalLoop=1;jettySize=auto;html=1;" edge="1" parent="WIyWlLk6GJQsqaUBKTNV-1" source="7jl8JdqEUFgO9NRopQBS-11" target="7jl8JdqEUFgO9NRopQBS-17">
          <mxGeometry relative="1" as="geometry" />
        </mxCell>
        <mxCell id="7jl8JdqEUFgO9NRopQBS-11" value="Display diagram and rules" style="whiteSpace=wrap;html=1;strokeWidth=2;rounded=1;arcSize=12;" vertex="1" parent="WIyWlLk6GJQsqaUBKTNV-1">
          <mxGeometry x="660" y="180" width="120" height="60" as="geometry" />
        </mxCell>
        <mxCell id="7jl8JdqEUFgO9NRopQBS-16" value="" style="edgeStyle=orthogonalEdgeStyle;rounded=0;orthogonalLoop=1;jettySize=auto;html=1;" edge="1" parent="WIyWlLk6GJQsqaUBKTNV-1" source="7jl8JdqEUFgO9NRopQBS-13" target="7jl8JdqEUFgO9NRopQBS-15">
          <mxGeometry relative="1" as="geometry" />
        </mxCell>
        <mxCell id="7jl8JdqEUFgO9NRopQBS-13" value="Display &quot;dead&quot; message, diagram and word" style="whiteSpace=wrap;html=1;strokeWidth=2;rounded=1;arcSize=12;" vertex="1" parent="WIyWlLk6GJQsqaUBKTNV-1">
          <mxGeometry x="830" y="520" width="120" height="60" as="geometry" />
        </mxCell>
        <mxCell id="7jl8JdqEUFgO9NRopQBS-15" value="Terminate app" style="strokeWidth=2;html=1;shape=mxgraph.flowchart.terminator;whiteSpace=wrap;" vertex="1" parent="WIyWlLk6GJQsqaUBKTNV-1">
          <mxGeometry x="840" y="620" width="100" height="60" as="geometry" />
        </mxCell>
        <mxCell id="7jl8JdqEUFgO9NRopQBS-24" value="" style="edgeStyle=orthogonalEdgeStyle;rounded=0;orthogonalLoop=1;jettySize=auto;html=1;" edge="1" parent="WIyWlLk6GJQsqaUBKTNV-1" source="7jl8JdqEUFgO9NRopQBS-17" target="7jl8JdqEUFgO9NRopQBS-23">
          <mxGeometry relative="1" as="geometry" />
        </mxCell>
        <mxCell id="7jl8JdqEUFgO9NRopQBS-17" value="Get word input from user" style="rounded=1;whiteSpace=wrap;html=1;absoluteArcSize=1;arcSize=14;strokeWidth=2;" vertex="1" parent="WIyWlLk6GJQsqaUBKTNV-1">
          <mxGeometry x="670" y="280" width="100" height="100" as="geometry" />
        </mxCell>
        <mxCell id="7jl8JdqEUFgO9NRopQBS-26" value="" style="edgeStyle=orthogonalEdgeStyle;rounded=0;orthogonalLoop=1;jettySize=auto;html=1;" edge="1" parent="WIyWlLk6GJQsqaUBKTNV-1" source="7jl8JdqEUFgO9NRopQBS-23" target="7jl8JdqEUFgO9NRopQBS-25">
          <mxGeometry relative="1" as="geometry" />
        </mxCell>
        <mxCell id="7jl8JdqEUFgO9NRopQBS-23" value="Compare user input with answer" style="shape=parallelogram;html=1;strokeWidth=2;perimeter=parallelogramPerimeter;whiteSpace=wrap;rounded=1;arcSize=12;size=0.23;" vertex="1" parent="WIyWlLk6GJQsqaUBKTNV-1">
          <mxGeometry x="670" y="410" width="100" height="60" as="geometry" />
        </mxCell>
        <mxCell id="7jl8JdqEUFgO9NRopQBS-28" value="Yes" style="edgeStyle=orthogonalEdgeStyle;rounded=0;orthogonalLoop=1;jettySize=auto;html=1;" edge="1" parent="WIyWlLk6GJQsqaUBKTNV-1" source="7jl8JdqEUFgO9NRopQBS-25" target="7jl8JdqEUFgO9NRopQBS-27">
          <mxGeometry relative="1" as="geometry" />
        </mxCell>
        <mxCell id="7jl8JdqEUFgO9NRopQBS-33" value="No" style="edgeStyle=orthogonalEdgeStyle;rounded=0;orthogonalLoop=1;jettySize=auto;html=1;" edge="1" parent="WIyWlLk6GJQsqaUBKTNV-1" source="7jl8JdqEUFgO9NRopQBS-25" target="7jl8JdqEUFgO9NRopQBS-32">
          <mxGeometry relative="1" as="geometry" />
        </mxCell>
        <mxCell id="7jl8JdqEUFgO9NRopQBS-25" value="Is the word correct?" style="rhombus;whiteSpace=wrap;html=1;strokeWidth=2;rounded=1;arcSize=12;" vertex="1" parent="WIyWlLk6GJQsqaUBKTNV-1">
          <mxGeometry x="520" y="400" width="80" height="80" as="geometry" />
        </mxCell>
        <mxCell id="7jl8JdqEUFgO9NRopQBS-27" value="Display congratulations and diagram" style="whiteSpace=wrap;html=1;strokeWidth=2;rounded=1;arcSize=12;" vertex="1" parent="WIyWlLk6GJQsqaUBKTNV-1">
          <mxGeometry x="500" y="620" width="120" height="60" as="geometry" />
        </mxCell>
        <mxCell id="7jl8JdqEUFgO9NRopQBS-30" style="edgeStyle=orthogonalEdgeStyle;rounded=0;orthogonalLoop=1;jettySize=auto;html=1;exitX=1;exitY=0.5;exitDx=0;exitDy=0;entryX=0;entryY=0.5;entryDx=0;entryDy=0;entryPerimeter=0;" edge="1" parent="WIyWlLk6GJQsqaUBKTNV-1" source="7jl8JdqEUFgO9NRopQBS-27" target="7jl8JdqEUFgO9NRopQBS-15">
          <mxGeometry relative="1" as="geometry" />
        </mxCell>
        <mxCell id="7jl8JdqEUFgO9NRopQBS-31" value="Gamplay loop" style="strokeWidth=2;html=1;shape=mxgraph.flowchart.annotation_2;align=right;labelPosition=left;pointerEvents=1;verticalLabelPosition=middle;verticalAlign=middle;" vertex="1" parent="WIyWlLk6GJQsqaUBKTNV-1">
          <mxGeometry x="469" y="30" width="50" height="470" as="geometry" />
        </mxCell>
        <mxCell id="7jl8JdqEUFgO9NRopQBS-34" style="edgeStyle=orthogonalEdgeStyle;rounded=0;orthogonalLoop=1;jettySize=auto;html=1;exitX=0.5;exitY=0;exitDx=0;exitDy=0;entryX=0;entryY=0.5;entryDx=0;entryDy=0;" edge="1" parent="WIyWlLk6GJQsqaUBKTNV-1" source="7jl8JdqEUFgO9NRopQBS-32" target="7jl8JdqEUFgO9NRopQBS-9">
          <mxGeometry relative="1" as="geometry" />
        </mxCell>
        <mxCell id="7jl8JdqEUFgO9NRopQBS-32" value="Mark correct and semi-correct letters" style="shape=parallelogram;html=1;strokeWidth=2;perimeter=parallelogramPerimeter;whiteSpace=wrap;rounded=1;arcSize=12;size=0.23;" vertex="1" parent="WIyWlLk6GJQsqaUBKTNV-1">
          <mxGeometry x="510" y="240" width="100" height="60" as="geometry" />
        </mxCell>
      </root>
    </mxGraphModel>
  </diagram>
</mxfile>
